<svg id="Layer_1" data-name="Layer 1" xmlns="http://www.w3.org/2000/svg" viewBox="0 0 441.37 95.02"><path d="M47.94,71V25.82h15v44.7c0,8.5,2.9,11.6,10.7,11.6s10.7-3.1,10.7-11.6V25.82h14.5V71c0,16.8-7.6,24-25.4,24S47.94,87.82,47.94,71Z"/><path d="M109.89,25.82h15v54.9h28.7v13.1h-43.7Z"/><path d="M160.84,25.82h15v54.9h28.7v13.1h-43.7Z"/><path d="M209.45,73.32h14.6c0,6.6,3.7,9.5,11,9.5,6.6,0,9.9-2.4,9.9-7.3,0-5.6-3.6-8-13.7-9.6-15.1-2.4-20.8-8-20.8-20.4,0-13.9,8.5-20.9,24.7-20.9,16,0,23.9,6.8,23.9,21.1h-14.6c0-5.9-3.1-8.8-9.6-8.8-6.2,0-9.4,2.6-9.4,7.1,0,5.1,3.5,7.4,13.1,8.8,15.9,2.3,21.4,8.4,21.4,21.2,0,14.1-8.3,21-25.3,21C217.35,95,209.45,88.22,209.45,73.32Z"/><path d="M268.45,25.82h46.6v12.9h-31.6v14.1h26.6v12.8h-26.6v15.3h32.6v12.9h-47.6Z"/><path d="M324.64,25.82h15.91l23.1,42.9V25.82h14.2v68h-14.3L338.85,48v45.8H324.64Z"/><path d="M389.66,25.82H415c18.31,0,26.41,8.4,26.41,26.8V67c0,18.5-8.1,26.8-26.41,26.8h-25.3ZM412.86,81c10.11,0,13.51-3.7,13.51-14.3V52.92c0-10.6-3.4-14.3-13.51-14.3h-8.2V81Z"/><path d="M80.28,8.89,73.35,0l.44,5C65.79,5.55,46.2,7.16,36,8.63a97.48,97.48,0,0,0-22.5,5.92C5.57,17.78,0,24.39,0,32.78V94H16.63V63.54H36.36V49.24H16.63V45.77c0-3.88,1.17-9.56,3.24-12.64,3-4.5,4.33-5,8.73-7.54a82.41,82.41,0,0,1,16.73-6.92C53.28,16.15,69.39,14,74.5,13l.4,4.38Z"/></svg>